<svg width="512" height="580" viewBox="0 0 512 580" fill="none" xmlns="http://www.w3.org/2000/svg">
<g clip-path="url(#clip0_1_3)">
<path d="M512 0H0V580H512V0Z" fill="url(#paint0_linear_1_3)"/>
<path d="M512 0H0V580H512V0Z" fill="url(#paint1_radial_1_3)"/>
<path d="M512 0H0V580H512V0Z" fill="url(#paint2_radial_1_3)"/>
<path d="M512 0H0V580H512V0Z" fill="url(#paint3_radial_1_3)"/>
<path d="M256 167C157.333 167 75.1111 239.353 34 290C75.1111 340.647 157.333 413 256 413C354.667 413 436.889 340.647 478 290C436.889 239.353 354.667 167 256 167Z" stroke="#232330" stroke-width="10" stroke-linejoin="round"/>
<path d="M256 362C295.765 362 328 329.765 328 290C328 250.235 295.765 218 256 218C216.235 218 184 250.235 184 290C184 329.765 216.235 362 256 362Z" fill="#232330"/>
<path d="M163.68 104.875L171.719 77.875H179.547L167.664 112H162.508L163.68 104.875ZM156.273 77.875L164.289 104.875L165.508 112H160.305L148.492 77.875H156.273ZM189.438 86.6406V112H182.664V86.6406H189.438ZM182.242 80.0312C182.242 79.0469 182.586 78.2344 183.273 77.5938C183.961 76.9531 184.883 76.6328 186.039 76.6328C187.18 76.6328 188.094 76.9531 188.781 77.5938C189.484 78.2344 189.836 79.0469 189.836 80.0312C189.836 81.0156 189.484 81.8281 188.781 82.4688C188.094 83.1094 187.18 83.4297 186.039 83.4297C184.883 83.4297 183.961 83.1094 183.273 82.4688C182.586 81.8281 182.242 81.0156 182.242 80.0312ZM208.727 104.992C208.727 104.508 208.586 104.07 208.305 103.68C208.023 103.289 207.5 102.93 206.734 102.602C205.984 102.258 204.898 101.945 203.477 101.664C202.195 101.383 201 101.031 199.891 100.609C198.797 100.172 197.844 99.6484 197.031 99.0391C196.234 98.4297 195.609 97.7109 195.156 96.8828C194.703 96.0391 194.477 95.0781 194.477 94C194.477 92.9375 194.703 91.9375 195.156 91C195.625 90.0625 196.289 89.2344 197.148 88.5156C198.023 87.7812 199.086 87.2109 200.336 86.8047C201.602 86.3828 203.023 86.1719 204.602 86.1719C206.805 86.1719 208.695 86.5234 210.273 87.2266C211.867 87.9297 213.086 88.8984 213.93 90.1328C214.789 91.3516 215.219 92.7422 215.219 94.3047H208.469C208.469 93.6484 208.328 93.0625 208.047 92.5469C207.781 92.0156 207.359 91.6016 206.781 91.3047C206.219 90.9922 205.484 90.8359 204.578 90.8359C203.828 90.8359 203.18 90.9688 202.633 91.2344C202.086 91.4844 201.664 91.8281 201.367 92.2656C201.086 92.6875 200.945 93.1562 200.945 93.6719C200.945 94.0625 201.023 94.4141 201.18 94.7266C201.352 95.0234 201.625 95.2969 202 95.5469C202.375 95.7969 202.859 96.0312 203.453 96.25C204.062 96.4531 204.812 96.6406 205.703 96.8125C207.531 97.1875 209.164 97.6797 210.602 98.2891C212.039 98.8828 213.18 99.6953 214.023 100.727C214.867 101.742 215.289 103.078 215.289 104.734C215.289 105.859 215.039 106.891 214.539 107.828C214.039 108.766 213.32 109.586 212.383 110.289C211.445 110.977 210.32 111.516 209.008 111.906C207.711 112.281 206.25 112.469 204.625 112.469C202.266 112.469 200.266 112.047 198.625 111.203C197 110.359 195.766 109.289 194.922 107.992C194.094 106.68 193.68 105.336 193.68 103.961H200.078C200.109 104.883 200.344 105.625 200.781 106.188C201.234 106.75 201.805 107.156 202.492 107.406C203.195 107.656 203.953 107.781 204.766 107.781C205.641 107.781 206.367 107.664 206.945 107.43C207.523 107.18 207.961 106.852 208.258 106.445C208.57 106.023 208.727 105.539 208.727 104.992ZM226.797 86.6406V112H220.023V86.6406H226.797ZM219.602 80.0312C219.602 79.0469 219.945 78.2344 220.633 77.5938C221.32 76.9531 222.242 76.6328 223.398 76.6328C224.539 76.6328 225.453 76.9531 226.141 77.5938C226.844 78.2344 227.195 79.0469 227.195 80.0312C227.195 81.0156 226.844 81.8281 226.141 82.4688C225.453 83.1094 224.539 83.4297 223.398 83.4297C222.242 83.4297 221.32 83.1094 220.633 82.4688C219.945 81.8281 219.602 81.0156 219.602 80.0312ZM231.297 99.5781V99.0859C231.297 97.2266 231.562 95.5156 232.094 93.9531C232.625 92.375 233.398 91.0078 234.414 89.8516C235.43 88.6953 236.68 87.7969 238.164 87.1562C239.648 86.5 241.352 86.1719 243.273 86.1719C245.195 86.1719 246.906 86.5 248.406 87.1562C249.906 87.7969 251.164 88.6953 252.18 89.8516C253.211 91.0078 253.992 92.375 254.523 93.9531C255.055 95.5156 255.32 97.2266 255.32 99.0859V99.5781C255.32 101.422 255.055 103.133 254.523 104.711C253.992 106.273 253.211 107.641 252.18 108.812C251.164 109.969 249.914 110.867 248.43 111.508C246.945 112.148 245.242 112.469 243.32 112.469C241.398 112.469 239.688 112.148 238.188 111.508C236.703 110.867 235.445 109.969 234.414 108.812C233.398 107.641 232.625 106.273 232.094 104.711C231.562 103.133 231.297 101.422 231.297 99.5781ZM238.047 99.0859V99.5781C238.047 100.641 238.141 101.633 238.328 102.555C238.516 103.477 238.812 104.289 239.219 104.992C239.641 105.68 240.188 106.219 240.859 106.609C241.531 107 242.352 107.195 243.32 107.195C244.258 107.195 245.062 107 245.734 106.609C246.406 106.219 246.945 105.68 247.352 104.992C247.758 104.289 248.055 103.477 248.242 102.555C248.445 101.633 248.547 100.641 248.547 99.5781V99.0859C248.547 98.0547 248.445 97.0859 248.242 96.1797C248.055 95.2578 247.75 94.4453 247.328 93.7422C246.922 93.0234 246.383 92.4609 245.711 92.0547C245.039 91.6484 244.227 91.4453 243.273 91.4453C242.32 91.4453 241.508 91.6484 240.836 92.0547C240.18 92.4609 239.641 93.0234 239.219 93.7422C238.812 94.4453 238.516 95.2578 238.328 96.1797C238.141 97.0859 238.047 98.0547 238.047 99.0859ZM259.469 76H266.219V106.188L265.539 112H259.469V76ZM282.273 99.0625V99.5547C282.273 101.445 282.07 103.18 281.664 104.758C281.273 106.336 280.664 107.703 279.836 108.859C279.008 110 277.977 110.891 276.742 111.531C275.523 112.156 274.086 112.469 272.43 112.469C270.883 112.469 269.539 112.156 268.398 111.531C267.273 110.906 266.328 110.023 265.562 108.883C264.797 107.742 264.18 106.406 263.711 104.875C263.242 103.344 262.891 101.672 262.656 99.8594V98.7812C262.891 96.9688 263.242 95.2969 263.711 93.7656C264.18 92.2344 264.797 90.8984 265.562 89.7578C266.328 88.6172 267.273 87.7344 268.398 87.1094C269.523 86.4844 270.852 86.1719 272.383 86.1719C274.055 86.1719 275.508 86.4922 276.742 87.1328C277.992 87.7578 279.023 88.6484 279.836 89.8047C280.664 90.9453 281.273 92.3047 281.664 93.8828C282.07 95.4453 282.273 97.1719 282.273 99.0625ZM275.523 99.5547V99.0625C275.523 98.0312 275.445 97.0625 275.289 96.1562C275.148 95.2344 274.898 94.4297 274.539 93.7422C274.18 93.0391 273.688 92.4844 273.062 92.0781C272.453 91.6719 271.664 91.4688 270.695 91.4688C269.773 91.4688 268.992 91.625 268.352 91.9375C267.711 92.25 267.18 92.6875 266.758 93.25C266.352 93.8125 266.047 94.4844 265.844 95.2656C265.641 96.0312 265.516 96.875 265.469 97.7969V100.867C265.516 102.102 265.719 103.195 266.078 104.148C266.453 105.086 267.016 105.828 267.766 106.375C268.531 106.906 269.523 107.172 270.742 107.172C271.695 107.172 272.484 106.984 273.109 106.609C273.734 106.234 274.219 105.703 274.562 105.016C274.922 104.328 275.172 103.523 275.312 102.602C275.453 101.664 275.523 100.648 275.523 99.5547ZM285.391 99.5781V99.0859C285.391 97.2266 285.656 95.5156 286.188 93.9531C286.719 92.375 287.492 91.0078 288.508 89.8516C289.523 88.6953 290.773 87.7969 292.258 87.1562C293.742 86.5 295.445 86.1719 297.367 86.1719C299.289 86.1719 301 86.5 302.5 87.1562C304 87.7969 305.258 88.6953 306.273 89.8516C307.305 91.0078 308.086 92.375 308.617 93.9531C309.148 95.5156 309.414 97.2266 309.414 99.0859V99.5781C309.414 101.422 309.148 103.133 308.617 104.711C308.086 106.273 307.305 107.641 306.273 108.812C305.258 109.969 304.008 110.867 302.523 111.508C301.039 112.148 299.336 112.469 297.414 112.469C295.492 112.469 293.781 112.148 292.281 111.508C290.797 110.867 289.539 109.969 288.508 108.812C287.492 107.641 286.719 106.273 286.188 104.711C285.656 103.133 285.391 101.422 285.391 99.5781ZM292.141 99.0859V99.5781C292.141 100.641 292.234 101.633 292.422 102.555C292.609 103.477 292.906 104.289 293.312 104.992C293.734 105.68 294.281 106.219 294.953 106.609C295.625 107 296.445 107.195 297.414 107.195C298.352 107.195 299.156 107 299.828 106.609C300.5 106.219 301.039 105.68 301.445 104.992C301.852 104.289 302.148 103.477 302.336 102.555C302.539 101.633 302.641 100.641 302.641 99.5781V99.0859C302.641 98.0547 302.539 97.0859 302.336 96.1797C302.148 95.2578 301.844 94.4453 301.422 93.7422C301.016 93.0234 300.477 92.4609 299.805 92.0547C299.133 91.6484 298.32 91.4453 297.367 91.4453C296.414 91.4453 295.602 91.6484 294.93 92.0547C294.273 92.4609 293.734 93.0234 293.312 93.7422C292.906 94.4453 292.609 95.2578 292.422 96.1797C292.234 97.0859 292.141 98.0547 292.141 99.0859ZM312.484 99.5781V99.0859C312.484 97.2266 312.75 95.5156 313.281 93.9531C313.812 92.375 314.586 91.0078 315.602 89.8516C316.617 88.6953 317.867 87.7969 319.352 87.1562C320.836 86.5 322.539 86.1719 324.461 86.1719C326.383 86.1719 328.094 86.5 329.594 87.1562C331.094 87.7969 332.352 88.6953 333.367 89.8516C334.398 91.0078 335.18 92.375 335.711 93.9531C336.242 95.5156 336.508 97.2266 336.508 99.0859V99.5781C336.508 101.422 336.242 103.133 335.711 104.711C335.18 106.273 334.398 107.641 333.367 108.812C332.352 109.969 331.102 110.867 329.617 111.508C328.133 112.148 326.43 112.469 324.508 112.469C322.586 112.469 320.875 112.148 319.375 111.508C317.891 110.867 316.633 109.969 315.602 108.812C314.586 107.641 313.812 106.273 313.281 104.711C312.75 103.133 312.484 101.422 312.484 99.5781ZM319.234 99.0859V99.5781C319.234 100.641 319.328 101.633 319.516 102.555C319.703 103.477 320 104.289 320.406 104.992C320.828 105.68 321.375 106.219 322.047 106.609C322.719 107 323.539 107.195 324.508 107.195C325.445 107.195 326.25 107 326.922 106.609C327.594 106.219 328.133 105.68 328.539 104.992C328.945 104.289 329.242 103.477 329.43 102.555C329.633 101.633 329.734 100.641 329.734 99.5781V99.0859C329.734 98.0547 329.633 97.0859 329.43 96.1797C329.242 95.2578 328.938 94.4453 328.516 93.7422C328.109 93.0234 327.57 92.4609 326.898 92.0547C326.227 91.6484 325.414 91.4453 324.461 91.4453C323.508 91.4453 322.695 91.6484 322.023 92.0547C321.367 92.4609 320.828 93.0234 320.406 93.7422C320 94.4453 319.703 95.2578 319.516 96.1797C319.328 97.0859 319.234 98.0547 319.234 99.0859ZM347.406 75.9766V112H340.656V75.9766H347.406ZM363.391 86.6406L352.375 99.2031L346.469 105.18L344.008 100.305L348.695 94.3516L355.281 86.6406H363.391ZM356.383 112L348.883 100.281L353.547 96.2031L364.164 112H356.383Z" fill="#232330"/>
</g>
<defs>
<linearGradient id="paint0_linear_1_3" x1="0" y1="0" x2="575.519" y2="508.045" gradientUnits="userSpaceOnUse">
<stop stop-color="#D5DFEF"/>
<stop offset="0.33" stop-color="#DDD4EE"/>
<stop offset="0.66" stop-color="#CDE4DA"/>
<stop offset="1" stop-color="#E0D6F0"/>
</linearGradient>
<radialGradient id="paint1_radial_1_3" cx="0" cy="0" r="1" gradientUnits="userSpaceOnUse" gradientTransform="translate(76.8 116) scale(230.4 261)">
<stop stop-color="#93B5E1" stop-opacity="0.5"/>
<stop offset="1" stop-color="#93B5E1" stop-opacity="0"/>
</radialGradient>
<radialGradient id="paint2_radial_1_3" cx="0" cy="0" r="1" gradientUnits="userSpaceOnUse" gradientTransform="translate(435.2 348) scale(230.4 261)">
<stop stop-color="#B8A4D8" stop-opacity="0.5"/>
<stop offset="1" stop-color="#B8A4D8" stop-opacity="0"/>
</radialGradient>
<radialGradient id="paint3_radial_1_3" cx="0" cy="0" r="1" gradientUnits="userSpaceOnUse" gradientTransform="translate(256 493) scale(204.8 232)">
<stop stop-color="#8FBFAA" stop-opacity="0.45"/>
<stop offset="1" stop-color="#8FBFAA" stop-opacity="0"/>
</radialGradient>
<clipPath id="clip0_1_3">
<rect width="512" height="580" fill="white"/>
</clipPath>
</defs>
</svg>
