<svg width="512" height="580" viewBox="0 0 512 580" fill="none" xmlns="http://www.w3.org/2000/svg">
<g clip-path="url(#clip0_1_15)">
<path d="M512 0H0V580H512V0Z" fill="url(#paint0_linear_1_15)"/>
<path d="M512 0H0V580H512V0Z" fill="url(#paint1_radial_1_15)"/>
<path d="M512 0H0V580H512V0Z" fill="url(#paint2_radial_1_15)"/>
<path d="M512 0H0V580H512V0Z" fill="url(#paint3_radial_1_15)"/>
<path d="M512 0H0V580H512V0Z" fill="url(#paint4_radial_1_15)"/>
<path d="M264 362C303.765 362 336 329.765 336 290C336 250.235 303.765 218 264 218C224.235 218 192 250.235 192 290C192 329.765 224.235 362 264 362Z" fill="#D9D8E8"/>
<path d="M171.68 106.875L179.719 79.875H187.547L175.664 114H170.508L171.68 106.875ZM164.273 79.875L172.289 106.875L173.508 114H168.305L156.492 79.875H164.273ZM197.438 88.6406V114H190.664V88.6406H197.438ZM190.242 82.0312C190.242 81.0469 190.586 80.2344 191.273 79.5938C191.961 78.9531 192.883 78.6328 194.039 78.6328C195.18 78.6328 196.094 78.9531 196.781 79.5938C197.484 80.2344 197.836 81.0469 197.836 82.0312C197.836 83.0156 197.484 83.8281 196.781 84.4688C196.094 85.1094 195.18 85.4297 194.039 85.4297C192.883 85.4297 191.961 85.1094 191.273 84.4688C190.586 83.8281 190.242 83.0156 190.242 82.0312ZM216.727 106.992C216.727 106.508 216.586 106.07 216.305 105.68C216.023 105.289 215.5 104.93 214.734 104.602C213.984 104.258 212.898 103.945 211.477 103.664C210.195 103.383 209 103.031 207.891 102.609C206.797 102.172 205.844 101.648 205.031 101.039C204.234 100.43 203.609 99.7109 203.156 98.8828C202.703 98.0391 202.477 97.0781 202.477 96C202.477 94.9375 202.703 93.9375 203.156 93C203.625 92.0625 204.289 91.2344 205.148 90.5156C206.023 89.7812 207.086 89.2109 208.336 88.8047C209.602 88.3828 211.023 88.1719 212.602 88.1719C214.805 88.1719 216.695 88.5234 218.273 89.2266C219.867 89.9297 221.086 90.8984 221.93 92.1328C222.789 93.3516 223.219 94.7422 223.219 96.3047H216.469C216.469 95.6484 216.328 95.0625 216.047 94.5469C215.781 94.0156 215.359 93.6016 214.781 93.3047C214.219 92.9922 213.484 92.8359 212.578 92.8359C211.828 92.8359 211.18 92.9688 210.633 93.2344C210.086 93.4844 209.664 93.8281 209.367 94.2656C209.086 94.6875 208.945 95.1562 208.945 95.6719C208.945 96.0625 209.023 96.4141 209.18 96.7266C209.352 97.0234 209.625 97.2969 210 97.5469C210.375 97.7969 210.859 98.0312 211.453 98.25C212.062 98.4531 212.812 98.6406 213.703 98.8125C215.531 99.1875 217.164 99.6797 218.602 100.289C220.039 100.883 221.18 101.695 222.023 102.727C222.867 103.742 223.289 105.078 223.289 106.734C223.289 107.859 223.039 108.891 222.539 109.828C222.039 110.766 221.32 111.586 220.383 112.289C219.445 112.977 218.32 113.516 217.008 113.906C215.711 114.281 214.25 114.469 212.625 114.469C210.266 114.469 208.266 114.047 206.625 113.203C205 112.359 203.766 111.289 202.922 109.992C202.094 108.68 201.68 107.336 201.68 105.961H208.078C208.109 106.883 208.344 107.625 208.781 108.188C209.234 108.75 209.805 109.156 210.492 109.406C211.195 109.656 211.953 109.781 212.766 109.781C213.641 109.781 214.367 109.664 214.945 109.43C215.523 109.18 215.961 108.852 216.258 108.445C216.57 108.023 216.727 107.539 216.727 106.992ZM234.797 88.6406V114H228.023V88.6406H234.797ZM227.602 82.0312C227.602 81.0469 227.945 80.2344 228.633 79.5938C229.32 78.9531 230.242 78.6328 231.398 78.6328C232.539 78.6328 233.453 78.9531 234.141 79.5938C234.844 80.2344 235.195 81.0469 235.195 82.0312C235.195 83.0156 234.844 83.8281 234.141 84.4688C233.453 85.1094 232.539 85.4297 231.398 85.4297C230.242 85.4297 229.32 85.1094 228.633 84.4688C227.945 83.8281 227.602 83.0156 227.602 82.0312ZM239.297 101.578V101.086C239.297 99.2266 239.562 97.5156 240.094 95.9531C240.625 94.375 241.398 93.0078 242.414 91.8516C243.43 90.6953 244.68 89.7969 246.164 89.1562C247.648 88.5 249.352 88.1719 251.273 88.1719C253.195 88.1719 254.906 88.5 256.406 89.1562C257.906 89.7969 259.164 90.6953 260.18 91.8516C261.211 93.0078 261.992 94.375 262.523 95.9531C263.055 97.5156 263.32 99.2266 263.32 101.086V101.578C263.32 103.422 263.055 105.133 262.523 106.711C261.992 108.273 261.211 109.641 260.18 110.812C259.164 111.969 257.914 112.867 256.43 113.508C254.945 114.148 253.242 114.469 251.32 114.469C249.398 114.469 247.688 114.148 246.188 113.508C244.703 112.867 243.445 111.969 242.414 110.812C241.398 109.641 240.625 108.273 240.094 106.711C239.562 105.133 239.297 103.422 239.297 101.578ZM246.047 101.086V101.578C246.047 102.641 246.141 103.633 246.328 104.555C246.516 105.477 246.812 106.289 247.219 106.992C247.641 107.68 248.188 108.219 248.859 108.609C249.531 109 250.352 109.195 251.32 109.195C252.258 109.195 253.062 109 253.734 108.609C254.406 108.219 254.945 107.68 255.352 106.992C255.758 106.289 256.055 105.477 256.242 104.555C256.445 103.633 256.547 102.641 256.547 101.578V101.086C256.547 100.055 256.445 99.0859 256.242 98.1797C256.055 97.2578 255.75 96.4453 255.328 95.7422C254.922 95.0234 254.383 94.4609 253.711 94.0547C253.039 93.6484 252.227 93.4453 251.273 93.4453C250.32 93.4453 249.508 93.6484 248.836 94.0547C248.18 94.4609 247.641 95.0234 247.219 95.7422C246.812 96.4453 246.516 97.2578 246.328 98.1797C246.141 99.0859 246.047 100.055 246.047 101.086ZM267.469 78H274.219V108.188L273.539 114H267.469V78ZM290.273 101.062V101.555C290.273 103.445 290.07 105.18 289.664 106.758C289.273 108.336 288.664 109.703 287.836 110.859C287.008 112 285.977 112.891 284.742 113.531C283.523 114.156 282.086 114.469 280.43 114.469C278.883 114.469 277.539 114.156 276.398 113.531C275.273 112.906 274.328 112.023 273.562 110.883C272.797 109.742 272.18 108.406 271.711 106.875C271.242 105.344 270.891 103.672 270.656 101.859V100.781C270.891 98.9688 271.242 97.2969 271.711 95.7656C272.18 94.2344 272.797 92.8984 273.562 91.7578C274.328 90.6172 275.273 89.7344 276.398 89.1094C277.523 88.4844 278.852 88.1719 280.383 88.1719C282.055 88.1719 283.508 88.4922 284.742 89.1328C285.992 89.7578 287.023 90.6484 287.836 91.8047C288.664 92.9453 289.273 94.3047 289.664 95.8828C290.07 97.4453 290.273 99.1719 290.273 101.062ZM283.523 101.555V101.062C283.523 100.031 283.445 99.0625 283.289 98.1562C283.148 97.2344 282.898 96.4297 282.539 95.7422C282.18 95.0391 281.688 94.4844 281.062 94.0781C280.453 93.6719 279.664 93.4688 278.695 93.4688C277.773 93.4688 276.992 93.625 276.352 93.9375C275.711 94.25 275.18 94.6875 274.758 95.25C274.352 95.8125 274.047 96.4844 273.844 97.2656C273.641 98.0312 273.516 98.875 273.469 99.7969V102.867C273.516 104.102 273.719 105.195 274.078 106.148C274.453 107.086 275.016 107.828 275.766 108.375C276.531 108.906 277.523 109.172 278.742 109.172C279.695 109.172 280.484 108.984 281.109 108.609C281.734 108.234 282.219 107.703 282.562 107.016C282.922 106.328 283.172 105.523 283.312 104.602C283.453 103.664 283.523 102.648 283.523 101.555ZM293.391 101.578V101.086C293.391 99.2266 293.656 97.5156 294.188 95.9531C294.719 94.375 295.492 93.0078 296.508 91.8516C297.523 90.6953 298.773 89.7969 300.258 89.1562C301.742 88.5 303.445 88.1719 305.367 88.1719C307.289 88.1719 309 88.5 310.5 89.1562C312 89.7969 313.258 90.6953 314.273 91.8516C315.305 93.0078 316.086 94.375 316.617 95.9531C317.148 97.5156 317.414 99.2266 317.414 101.086V101.578C317.414 103.422 317.148 105.133 316.617 106.711C316.086 108.273 315.305 109.641 314.273 110.812C313.258 111.969 312.008 112.867 310.523 113.508C309.039 114.148 307.336 114.469 305.414 114.469C303.492 114.469 301.781 114.148 300.281 113.508C298.797 112.867 297.539 111.969 296.508 110.812C295.492 109.641 294.719 108.273 294.188 106.711C293.656 105.133 293.391 103.422 293.391 101.578ZM300.141 101.086V101.578C300.141 102.641 300.234 103.633 300.422 104.555C300.609 105.477 300.906 106.289 301.312 106.992C301.734 107.68 302.281 108.219 302.953 108.609C303.625 109 304.445 109.195 305.414 109.195C306.352 109.195 307.156 109 307.828 108.609C308.5 108.219 309.039 107.68 309.445 106.992C309.852 106.289 310.148 105.477 310.336 104.555C310.539 103.633 310.641 102.641 310.641 101.578V101.086C310.641 100.055 310.539 99.0859 310.336 98.1797C310.148 97.2578 309.844 96.4453 309.422 95.7422C309.016 95.0234 308.477 94.4609 307.805 94.0547C307.133 93.6484 306.32 93.4453 305.367 93.4453C304.414 93.4453 303.602 93.6484 302.93 94.0547C302.273 94.4609 301.734 95.0234 301.312 95.7422C300.906 96.4453 300.609 97.2578 300.422 98.1797C300.234 99.0859 300.141 100.055 300.141 101.086ZM320.484 101.578V101.086C320.484 99.2266 320.75 97.5156 321.281 95.9531C321.812 94.375 322.586 93.0078 323.602 91.8516C324.617 90.6953 325.867 89.7969 327.352 89.1562C328.836 88.5 330.539 88.1719 332.461 88.1719C334.383 88.1719 336.094 88.5 337.594 89.1562C339.094 89.7969 340.352 90.6953 341.367 91.8516C342.398 93.0078 343.18 94.375 343.711 95.9531C344.242 97.5156 344.508 99.2266 344.508 101.086V101.578C344.508 103.422 344.242 105.133 343.711 106.711C343.18 108.273 342.398 109.641 341.367 110.812C340.352 111.969 339.102 112.867 337.617 113.508C336.133 114.148 334.43 114.469 332.508 114.469C330.586 114.469 328.875 114.148 327.375 113.508C325.891 112.867 324.633 111.969 323.602 110.812C322.586 109.641 321.812 108.273 321.281 106.711C320.75 105.133 320.484 103.422 320.484 101.578ZM327.234 101.086V101.578C327.234 102.641 327.328 103.633 327.516 104.555C327.703 105.477 328 106.289 328.406 106.992C328.828 107.68 329.375 108.219 330.047 108.609C330.719 109 331.539 109.195 332.508 109.195C333.445 109.195 334.25 109 334.922 108.609C335.594 108.219 336.133 107.68 336.539 106.992C336.945 106.289 337.242 105.477 337.43 104.555C337.633 103.633 337.734 102.641 337.734 101.578V101.086C337.734 100.055 337.633 99.0859 337.43 98.1797C337.242 97.2578 336.938 96.4453 336.516 95.7422C336.109 95.0234 335.57 94.4609 334.898 94.0547C334.227 93.6484 333.414 93.4453 332.461 93.4453C331.508 93.4453 330.695 93.6484 330.023 94.0547C329.367 94.4609 328.828 95.0234 328.406 95.7422C328 96.4453 327.703 97.2578 327.516 98.1797C327.328 99.0859 327.234 100.055 327.234 101.086ZM355.406 77.9766V114H348.656V77.9766H355.406ZM371.391 88.6406L360.375 101.203L354.469 107.18L352.008 102.305L356.695 96.3516L363.281 88.6406H371.391ZM364.383 114L356.883 102.281L361.547 98.2031L372.164 114H364.383Z" fill="#D9D8E8"/>
<path d="M264 167C165.333 167 83.1111 239.353 42 290C83.1111 340.647 165.333 413 264 413C362.667 413 444.889 340.647 486 290C444.889 239.353 362.667 167 264 167Z" stroke="#D9D8E8" stroke-width="10" stroke-linejoin="round"/>
</g>
<defs>
<linearGradient id="paint0_linear_1_15" x1="0" y1="0" x2="575.519" y2="508.045" gradientUnits="userSpaceOnUse">
<stop stop-color="#0D0D12"/>
<stop offset="0.33" stop-color="#12101A"/>
<stop offset="0.66" stop-color="#0E1415"/>
<stop offset="1" stop-color="#110D16"/>
</linearGradient>
<radialGradient id="paint1_radial_1_15" cx="0" cy="0" r="1" gradientUnits="userSpaceOnUse" gradientTransform="translate(76.8 116) scale(256 290)">
<stop stop-color="#93B5E1" stop-opacity="0.35"/>
<stop offset="1" stop-color="#93B5E1" stop-opacity="0"/>
</radialGradient>
<radialGradient id="paint2_radial_1_15" cx="0" cy="0" r="1" gradientUnits="userSpaceOnUse" gradientTransform="translate(435.2 348) scale(256 290)">
<stop stop-color="#B8A4D8" stop-opacity="0.35"/>
<stop offset="1" stop-color="#B8A4D8" stop-opacity="0"/>
</radialGradient>
<radialGradient id="paint3_radial_1_15" cx="0" cy="0" r="1" gradientUnits="userSpaceOnUse" gradientTransform="translate(256 493) scale(230.4 261)">
<stop stop-color="#8FBFAA" stop-opacity="0.3"/>
<stop offset="1" stop-color="#8FBFAA" stop-opacity="0"/>
</radialGradient>
<radialGradient id="paint4_radial_1_15" cx="0" cy="0" r="1" gradientUnits="userSpaceOnUse" gradientTransform="translate(358.4 58) scale(179.2 203)">
<stop stop-color="#E8A4B8" stop-opacity="0.2"/>
<stop offset="1" stop-color="#E8A4B8" stop-opacity="0"/>
</radialGradient>
<clipPath id="clip0_1_15">
<rect width="512" height="580" fill="white"/>
</clipPath>
</defs>
</svg>
