<svg width="821" height="780" viewBox="0 0 821 780" fill="none" xmlns="http://www.w3.org/2000/svg">
<path d="M410.157 216.701C230.088 216.701 80.0304 380.906 5.00163 495.85C80.0304 610.793 230.088 774.998 410.157 774.998C590.226 774.998 740.283 610.793 815.312 495.85C740.283 380.906 590.226 216.701 410.157 216.701Z" stroke="#232330" stroke-width="10" stroke-linejoin="round"/>
<path d="M410.157 659.254C482.728 659.254 541.559 586.095 541.559 495.85C541.559 405.604 482.728 332.446 410.157 332.446C337.586 332.446 278.755 405.604 278.755 495.85C278.755 586.095 337.586 659.254 410.157 659.254Z" fill="#232330"/>
<path d="M317.806 28.9079L325.848 1.89906H333.679L321.792 36.0352H316.634L317.806 28.9079ZM310.398 1.89906L318.416 28.9079L319.635 36.0352H314.43L302.614 1.89906H310.398ZM343.573 10.6675V36.0352H336.797V10.6675H343.573ZM336.375 4.05601C336.375 3.07132 336.719 2.25855 337.406 1.61772C338.094 0.976882 339.016 0.656465 340.173 0.656465C341.314 0.656465 342.228 0.976882 342.916 1.61772C343.619 2.25855 343.971 3.07132 343.971 4.05601C343.971 5.04071 343.619 5.85348 342.916 6.49431C342.228 7.13514 341.314 7.45556 340.173 7.45556C339.016 7.45556 338.094 7.13514 337.406 6.49431C336.719 5.85348 336.375 5.04071 336.375 4.05601ZM362.868 29.0251C362.868 28.5406 362.727 28.1029 362.446 27.7122C362.165 27.3214 361.641 26.9619 360.875 26.6337C360.125 26.2898 359.039 25.9772 357.616 25.6959C356.335 25.4146 355.139 25.0629 354.029 24.6409C352.935 24.2032 351.982 23.6796 351.169 23.07C350.372 22.4605 349.746 21.7415 349.293 20.9131C348.84 20.0691 348.613 19.1078 348.613 18.0293C348.613 16.9665 348.84 15.9662 349.293 15.0283C349.762 14.0905 350.426 13.2621 351.286 12.5432C352.161 11.8085 353.224 11.238 354.475 10.8317C355.741 10.4097 357.163 10.1986 358.742 10.1986C360.945 10.1986 362.837 10.5503 364.415 11.2537C366.01 11.957 367.229 12.9261 368.073 14.1609C368.932 15.38 369.362 16.7711 369.362 18.3341H362.61C362.61 17.6777 362.469 17.0915 362.188 16.5757C361.922 16.0443 361.5 15.6301 360.922 15.3331C360.359 15.0205 359.625 14.8642 358.718 14.8642C357.968 14.8642 357.319 14.9971 356.772 15.2628C356.225 15.5129 355.803 15.8567 355.506 16.2944C355.225 16.7164 355.084 17.1853 355.084 17.7011C355.084 18.0918 355.162 18.4435 355.319 18.7561C355.491 19.0531 355.764 19.3266 356.139 19.5767C356.514 19.8268 356.999 20.0612 357.593 20.2801C358.202 20.4833 358.953 20.6708 359.843 20.8427C361.672 21.2179 363.306 21.7102 364.744 22.3198C366.182 22.9137 367.322 23.7265 368.167 24.7581C369.011 25.774 369.433 27.1104 369.433 28.7672C369.433 29.8926 369.182 30.9242 368.682 31.862C368.182 32.7998 367.463 33.6204 366.525 34.3237C365.588 35.0114 364.462 35.5507 363.149 35.9414C361.852 36.3166 360.391 36.5041 358.765 36.5041C356.405 36.5041 354.404 36.0821 352.763 35.2381C351.138 34.3941 349.903 33.3234 349.059 32.0261C348.23 30.7132 347.816 29.369 347.816 27.9935H354.217C354.248 28.9157 354.482 29.6581 354.92 30.2208C355.373 30.7835 355.944 31.1899 356.632 31.44C357.335 31.69 358.093 31.8151 358.906 31.8151C359.781 31.8151 360.508 31.6979 361.086 31.4634C361.664 31.2133 362.102 30.8851 362.399 30.4787C362.712 30.0567 362.868 29.5722 362.868 29.0251ZM380.944 10.6675V36.0352H374.168V10.6675H380.944ZM373.746 4.05601C373.746 3.07132 374.09 2.25855 374.778 1.61772C375.466 0.976882 376.388 0.656465 377.545 0.656465C378.686 0.656465 379.6 0.976882 380.288 1.61772C380.991 2.25855 381.343 3.07132 381.343 4.05601C381.343 5.04071 380.991 5.85348 380.288 6.49431C379.6 7.13514 378.686 7.45556 377.545 7.45556C376.388 7.45556 375.466 7.13514 374.778 6.49431C374.09 5.85348 373.746 5.04071 373.746 4.05601ZM385.446 23.6093V23.1169C385.446 21.2569 385.711 19.5454 386.243 17.9824C386.774 16.4038 387.548 15.0362 388.564 13.8795C389.58 12.7229 390.83 11.8242 392.315 11.1833C393.8 10.5269 395.504 10.1986 397.426 10.1986C399.349 10.1986 401.06 10.5269 402.561 11.1833C404.061 11.8242 405.319 12.7229 406.335 13.8795C407.367 15.0362 408.148 16.4038 408.68 17.9824C409.211 19.5454 409.477 21.2569 409.477 23.1169V23.6093C409.477 25.4536 409.211 27.1651 408.68 28.7438C408.148 30.3068 407.367 31.6744 406.335 32.8467C405.319 34.0033 404.069 34.902 402.584 35.5429C401.099 36.1837 399.395 36.5041 397.473 36.5041C395.55 36.5041 393.839 36.1837 392.338 35.5429C390.854 34.902 389.595 34.0033 388.564 32.8467C387.548 31.6744 386.774 30.3068 386.243 28.7438C385.711 27.1651 385.446 25.4536 385.446 23.6093ZM392.198 23.1169V23.6093C392.198 24.6721 392.292 25.6646 392.479 26.5868C392.667 27.509 392.964 28.3218 393.37 29.0251C393.792 29.7128 394.339 30.2521 395.011 30.6428C395.683 31.0336 396.504 31.229 397.473 31.229C398.411 31.229 399.216 31.0336 399.888 30.6428C400.56 30.2521 401.099 29.7128 401.506 29.0251C401.912 28.3218 402.209 27.509 402.396 26.5868C402.6 25.6646 402.701 24.6721 402.701 23.6093V23.1169C402.701 22.0853 402.6 21.1163 402.396 20.2097C402.209 19.2876 401.904 18.4748 401.482 17.7714C401.076 17.0524 400.536 16.4898 399.864 16.0834C399.192 15.677 398.38 15.4738 397.426 15.4738C396.473 15.4738 395.66 15.677 394.988 16.0834C394.331 16.4898 393.792 17.0524 393.37 17.7714C392.964 18.4748 392.667 19.2876 392.479 20.2097C392.292 21.1163 392.198 22.0853 392.198 23.1169ZM413.627 0.0234452H420.379V30.2208L419.699 36.0352H413.627V0.0234452ZM436.439 23.0935V23.5858C436.439 25.4771 436.236 27.212 435.829 28.7907C435.439 30.3693 434.829 31.7369 434.001 32.8936C433.172 34.0346 432.141 34.9255 430.906 35.5663C429.687 36.1915 428.249 36.5041 426.592 36.5041C425.044 36.5041 423.7 36.1915 422.559 35.5663C421.434 34.9411 420.488 34.058 419.722 32.917C418.957 31.776 418.339 30.4396 417.87 28.9079C417.401 27.3761 417.05 25.7037 416.815 23.8906V22.8121C417.05 20.999 417.401 19.3266 417.87 17.7949C418.339 16.2631 418.957 14.9268 419.722 13.7858C420.488 12.6448 421.434 11.7617 422.559 11.1365C423.685 10.5112 425.013 10.1986 426.545 10.1986C428.217 10.1986 429.671 10.5191 430.906 11.1599C432.156 11.7851 433.188 12.676 434.001 13.8326C434.829 14.9736 435.439 16.3335 435.829 17.9121C436.236 19.4751 436.439 21.2022 436.439 23.0935ZM429.687 23.5858V23.0935C429.687 22.0619 429.608 21.0928 429.452 20.1863C429.312 19.2641 429.061 18.4592 428.702 17.7714C428.342 17.0681 427.85 16.5132 427.225 16.1068C426.615 15.7004 425.826 15.4973 424.857 15.4973C423.935 15.4973 423.153 15.6536 422.512 15.9662C421.872 16.2788 421.34 16.7164 420.918 17.2791C420.512 17.8418 420.207 18.5139 420.004 19.2954C419.801 20.0612 419.676 20.9053 419.629 21.8274V24.8988C419.676 26.1335 419.879 27.2276 420.238 28.1811C420.613 29.1189 421.176 29.8613 421.926 30.4084C422.692 30.9398 423.685 31.2055 424.904 31.2055C425.857 31.2055 426.647 31.0179 427.272 30.6428C427.897 30.2677 428.382 29.7363 428.725 29.0486C429.085 28.3608 429.335 27.5559 429.476 26.6337C429.616 25.6959 429.687 24.6799 429.687 23.5858ZM439.557 23.6093V23.1169C439.557 21.2569 439.823 19.5454 440.354 17.9824C440.886 16.4038 441.659 15.0362 442.675 13.8795C443.691 12.7229 444.942 11.8242 446.426 11.1833C447.911 10.5269 449.615 10.1986 451.538 10.1986C453.46 10.1986 455.172 10.5269 456.672 11.1833C458.172 11.8242 459.431 12.7229 460.447 13.8795C461.478 15.0362 462.26 16.4038 462.791 17.9824C463.323 19.5454 463.588 21.2569 463.588 23.1169V23.6093C463.588 25.4536 463.323 27.1651 462.791 28.7438C462.26 30.3068 461.478 31.6744 460.447 32.8467C459.431 34.0033 458.18 34.902 456.695 35.5429C455.211 36.1837 453.507 36.5041 451.584 36.5041C449.662 36.5041 447.95 36.1837 446.45 35.5429C444.965 34.902 443.707 34.0033 442.675 32.8467C441.659 31.6744 440.886 30.3068 440.354 28.7438C439.823 27.1651 439.557 25.4536 439.557 23.6093ZM446.309 23.1169V23.6093C446.309 24.6721 446.403 25.6646 446.591 26.5868C446.778 27.509 447.075 28.3218 447.482 29.0251C447.904 29.7128 448.451 30.2521 449.123 30.6428C449.795 31.0336 450.615 31.229 451.584 31.229C452.522 31.229 453.327 31.0336 453.999 30.6428C454.671 30.2521 455.211 29.7128 455.617 29.0251C456.023 28.3218 456.32 27.509 456.508 26.5868C456.711 25.6646 456.813 24.6721 456.813 23.6093V23.1169C456.813 22.0853 456.711 21.1163 456.508 20.2097C456.32 19.2876 456.016 18.4748 455.594 17.7714C455.187 17.0524 454.648 16.4898 453.976 16.0834C453.304 15.677 452.491 15.4738 451.538 15.4738C450.584 15.4738 449.771 15.677 449.099 16.0834C448.443 16.4898 447.904 17.0524 447.482 17.7714C447.075 18.4748 446.778 19.2876 446.591 20.2097C446.403 21.1163 446.309 22.0853 446.309 23.1169ZM466.66 23.6093V23.1169C466.66 21.2569 466.925 19.5454 467.457 17.9824C467.988 16.4038 468.762 15.0362 469.778 13.8795C470.794 12.7229 472.044 11.8242 473.529 11.1833C475.014 10.5269 476.718 10.1986 478.64 10.1986C480.563 10.1986 482.274 10.5269 483.775 11.1833C485.275 11.8242 486.533 12.7229 487.549 13.8795C488.581 15.0362 489.362 16.4038 489.894 17.9824C490.425 19.5454 490.691 21.2569 490.691 23.1169V23.6093C490.691 25.4536 490.425 27.1651 489.894 28.7438C489.362 30.3068 488.581 31.6744 487.549 32.8467C486.533 34.0033 485.283 34.902 483.798 35.5429C482.313 36.1837 480.61 36.5041 478.687 36.5041C476.765 36.5041 475.053 36.1837 473.553 35.5429C472.068 34.902 470.809 34.0033 469.778 32.8467C468.762 31.6744 467.988 30.3068 467.457 28.7438C466.925 27.1651 466.66 25.4536 466.66 23.6093ZM473.412 23.1169V23.6093C473.412 24.6721 473.506 25.6646 473.693 26.5868C473.881 27.509 474.178 28.3218 474.584 29.0251C475.006 29.7128 475.553 30.2521 476.225 30.6428C476.897 31.0336 477.718 31.229 478.687 31.229C479.625 31.229 480.43 31.0336 481.102 30.6428C481.774 30.2521 482.313 29.7128 482.72 29.0251C483.126 28.3218 483.423 27.509 483.61 26.5868C483.814 25.6646 483.915 24.6721 483.915 23.6093V23.1169C483.915 22.0853 483.814 21.1163 483.61 20.2097C483.423 19.2876 483.118 18.4748 482.696 17.7714C482.29 17.0524 481.751 16.4898 481.078 16.0834C480.406 15.677 479.594 15.4738 478.64 15.4738C477.687 15.4738 476.874 15.677 476.202 16.0834C475.545 16.4898 475.006 17.0524 474.584 17.7714C474.178 18.4748 473.881 19.2876 473.693 20.2097C473.506 21.1163 473.412 22.0853 473.412 23.1169ZM501.593 0V36.0352H494.841V0H501.593ZM517.583 10.6675L506.563 23.2342L500.655 29.2127L498.193 24.3361L502.882 18.381L509.47 10.6675H517.583ZM510.572 36.0352L503.07 24.3126L507.736 20.2332L518.356 36.0352H510.572Z" fill="#232330"/>
</svg>
